<svg xmlns="http://www.w3.org/2000/svg" width="253.333" height="253.333" preserveAspectRatio="xMidYMid meet" version="1.0" viewBox="0 0 190 190"><metadata>Created by potrace 1.14, written by Peter Selinger 2001-2017</metadata><g fill="#000" stroke="none"><path d="M0 950 l0 -950 950 0 950 0 0 950 0 950 -950 0 -950 0 0 -950z m636 549 c66 -25 137 -86 166 -142 11 -22 22 -64 25 -93 l6 -54 -92 0 -91 0 0 28 c0 34 -31 86 -64 107 -13 9 -48 19 -78 21 -43 4 -62 1 -98 -18 -78 -40 -80 -49 -80 -378 0 -252 2 -289 18 -319 26 -52 63 -74 130 -79 100 -7 172 46 172 128 l0 30 91 0 92 0 -6 -54 c-17 -169 -178 -282 -373 -262 -100 10 -152 33 -215 95 -88 86 -91 102 -87 483 l3 313 27 50 c40 75 99 125 180 150 70 22 207 19 274 -6z m661 -191 c34 -112 68 -225 75 -253 l14 -50 22 85 c12 47 44 159 70 250 l49 165 106 3 107 3 0 -541 0 -540 -81 0 -82 0 6 348 c5 305 13 453 32 597 11 75 -11 12 -80 -232 l-69 -243 -82 0 -82 0 -16 48 c-8 26 -40 135 -71 242 -31 107 -60 198 -64 202 -4 5 -2 -43 5 -105 21 -196 34 -449 34 -656 l0 -201 -85 0 -85 0 0 540 0 540 108 0 108 0 61 -202z" transform="translate(0.000000,190.000000) scale(0.100000,-0.100000)"/></g></svg>