<?xml version="1.0" standalone="no"?>
<!DOCTYPE svg PUBLIC "-//W3C//DTD SVG 20010904//EN"
 "http://www.w3.org/TR/2001/REC-SVG-20010904/DTD/svg10.dtd">
<svg version="1.0" xmlns="http://www.w3.org/2000/svg"
 width="106.000000pt" height="106.000000pt" viewBox="0 0 106.000000 106.000000"
 preserveAspectRatio="xMidYMid meet">
<metadata>
Created by potrace 1.14, written by Peter Selinger 2001-2017
</metadata>
<g transform="translate(0.000000,106.000000) scale(0.100000,-0.100000)"
fill="#000000" stroke="none">
<path d="M103 870 c-41 -17 -53 -51 -57 -156 -4 -106 -9 -129 -32 -138 -20 -8
-19 -86 0 -86 24 0 30 -21 32 -105 1 -44 2 -93 3 -108 1 -17 13 -40 30 -58 25
-25 37 -29 83 -29 l54 0 -4 35 c-4 30 -9 37 -33 42 -16 3 -32 10 -36 16 -3 6
-7 53 -8 104 -2 78 -6 99 -23 122 l-20 28 20 20 c17 18 21 36 23 122 2 106 7
119 43 126 35 6 39 12 34 45 -4 28 -7 30 -46 29 -22 0 -51 -4 -63 -9z"/>
<path d="M842 843 c2 -31 7 -38 25 -39 45 -2 53 -20 53 -118 0 -70 4 -98 18
-121 18 -29 18 -31 0 -60 -14 -23 -18 -51 -18 -122 0 -86 -2 -94 -24 -108 -13
-9 -30 -14 -37 -13 -10 2 -15 -9 -17 -34 l-3 -38 45 0 c57 0 94 17 111 49 7
16 13 67 14 126 2 92 4 102 27 123 28 27 26 74 -6 101 -17 14 -20 31 -21 116
-1 55 -6 110 -12 123 -15 32 -57 52 -112 52 l-46 0 3 -37z"/>
<path d="M421 792 c-19 -9 -39 -26 -45 -37 -6 -11 -17 -24 -25 -31 -20 -15
-17 -63 5 -79 17 -13 21 -12 34 3 8 10 23 21 33 25 9 3 17 11 17 17 0 5 5 10
10 10 16 0 12 -33 -16 -138 -31 -118 -43 -145 -68 -148 -46 -7 -66 -15 -66
-29 0 -8 -9 -23 -20 -32 -11 -10 -20 -25 -20 -34 0 -13 11 -15 78 -11 l78 4
107 -56 c59 -31 121 -56 136 -56 44 0 127 72 139 121 5 21 8 39 7 39 -2 0 -16
-5 -32 -11 -48 -18 -100 -12 -200 22 -54 19 -100 34 -101 35 -2 2 17 53 43
116 78 188 94 260 63 279 -23 15 -121 10 -157 -9z"/>
</g>
</svg>
