<svg width="68" height="50" viewBox="0 0 68 50" fill="none" xmlns="http://www.w3.org/2000/svg">
<path d="M58.272 5.54419C52.419 0.832429 43.1587 0.0339008 42.7617 0.0059597C42.46 -0.0188752 42.1581 0.0507332 41.8978 0.205139C41.6375 0.359545 41.4316 0.591102 41.3088 0.867723C41.1321 1.26511 40.9823 1.67386 40.8602 2.09125C44.7323 2.74566 49.4881 4.06183 53.7911 6.73242C53.9552 6.83429 54.0977 6.9675 54.2104 7.12443C54.3231 7.28136 54.4037 7.45895 54.4478 7.64706C54.4918 7.83517 54.4984 8.03011 54.4671 8.22075C54.4358 8.41139 54.3672 8.594 54.2653 8.75815C54.1635 8.9223 54.0303 9.06478 53.8733 9.17745C53.7164 9.29013 53.5388 9.37079 53.3507 9.41482C53.1626 9.45886 52.9677 9.46542 52.777 9.43412C52.5864 9.40283 52.4038 9.33428 52.2396 9.23241C44.8426 4.63977 35.6044 4.41183 33.8235 4.41183C32.0441 4.41183 22.8 4.64125 15.4073 9.23094C15.2432 9.33282 15.0606 9.40136 14.8699 9.43265C14.6793 9.46395 14.4843 9.45739 14.2962 9.41335C13.9163 9.32441 13.5873 9.0882 13.3816 8.75668C13.1759 8.42516 13.1102 8.02549 13.1992 7.64559C13.2881 7.26569 13.5243 6.93668 13.8559 6.73095C18.1588 4.06772 22.9147 2.74566 26.7867 2.09713C26.5632 1.36772 26.3603 0.907429 26.3455 0.867723C26.2232 0.589149 26.0164 0.356074 25.7543 0.201436C25.4923 0.0467983 25.1883 -0.0215815 24.8853 0.0059597C24.4882 0.0353714 15.2279 0.832428 9.2941 5.60742C6.19852 8.47212 0 25.2236 0 39.7059C0 39.9647 0.0691174 40.2118 0.195588 40.4353C4.46911 47.95 16.1367 49.9132 18.7956 50H18.8411C19.0732 50.0006 19.3021 49.9463 19.5091 49.8415C19.7161 49.7367 19.8954 49.5844 20.0323 49.3971L22.7191 45.6971C15.4647 43.825 11.7588 40.6427 11.547 40.4529C11.2545 40.1948 11.0766 39.8309 11.0523 39.4415C11.028 39.0521 11.1594 38.669 11.4176 38.3765C11.6758 38.084 12.0396 37.906 12.4291 37.8817C12.8185 37.8575 13.2016 37.9889 13.4941 38.2471C13.5794 38.328 20.4044 44.1176 33.8235 44.1176C47.2646 44.1176 54.0896 38.3044 54.1587 38.2471C54.4522 37.9907 54.8353 37.8613 55.2241 37.8872C55.6129 37.9131 55.9755 38.0923 56.2323 38.3853C56.3594 38.5297 56.4568 38.6978 56.5189 38.8799C56.5811 39.062 56.6067 39.2545 56.5944 39.4465C56.5822 39.6386 56.5322 39.8263 56.4473 39.9989C56.3624 40.1716 56.2444 40.3259 56.0999 40.4529C55.8881 40.6427 52.1823 43.825 44.9279 45.6971L47.6161 49.3971C47.7529 49.5842 47.9319 49.7364 48.1387 49.8412C48.3454 49.9459 48.574 50.0004 48.8058 50H48.8499C51.5117 49.9132 63.1778 47.9485 67.4528 40.4353C67.5778 40.2118 67.6469 39.9647 67.6469 39.7059C67.6469 25.2236 61.4484 8.47359 58.272 5.54419V5.54419ZM24.2647 33.8235C21.4206 33.8235 19.1176 31.1912 19.1176 27.9412C19.1176 24.6912 21.4206 22.0589 24.2647 22.0589C27.1088 22.0589 29.4117 24.6912 29.4117 27.9412C29.4117 31.1912 27.1088 33.8235 24.2647 33.8235ZM43.3823 33.8235C40.5382 33.8235 38.2352 31.1912 38.2352 27.9412C38.2352 24.6912 40.5382 22.0589 43.3823 22.0589C46.2264 22.0589 48.5293 24.6912 48.5293 27.9412C48.5293 31.1912 46.2264 33.8235 43.3823 33.8235Z" fill="#AF3B2C"/>
</svg>
