<svg width="52" height="50" viewBox="0 0 52 50" fill="none" xmlns="http://www.w3.org/2000/svg">
<path d="M25.6324 0C19.5459 0.000252389 13.6581 2.16622 9.02255 6.11035C4.38696 10.0545 1.30604 15.5194 0.331068 21.5272C-0.643902 27.5351 0.550697 33.6939 3.70112 38.9015C6.85154 44.1092 11.7522 48.0259 17.5262 49.9509C18.8078 50.1753 19.2884 49.4063 19.2884 48.7334C19.2884 48.1247 19.2564 46.1061 19.2564 43.9594C12.8162 45.1449 11.1501 42.3895 10.6375 40.9477C10.0686 39.5454 9.16689 38.3027 8.01017 37.327C7.11303 36.8464 5.83142 35.6609 7.9781 35.629C8.79779 35.7179 9.58396 36.0031 10.27 36.4605C10.956 36.9178 11.5217 37.5338 11.9191 38.2562C12.2697 38.886 12.7411 39.4404 13.3063 39.8877C13.8715 40.335 14.5194 40.6663 15.2129 40.8628C15.9064 41.0592 16.6319 41.1169 17.3477 41.0325C18.0635 40.9481 18.7557 40.7232 19.3844 40.3709C19.4954 39.0678 20.0762 37.8494 21.0186 36.9426C15.3154 36.3018 9.35586 34.0909 9.35586 24.2867C9.31984 21.7392 10.2599 19.2745 11.9832 17.398C11.1995 15.1839 11.2912 12.7542 12.2395 10.6054C12.2395 10.6054 14.3861 9.93257 19.2884 13.2328C23.4826 12.0792 27.9103 12.0792 32.1045 13.2328C37.0067 9.90055 39.1534 10.6054 39.1534 10.6054C40.1018 12.7541 40.1935 15.184 39.4097 17.398C41.1382 19.2713 42.0791 21.7381 42.037 24.2867C42.037 34.123 36.0454 36.3018 30.3423 36.9426C30.954 37.5626 31.4252 38.307 31.7237 39.1252C32.0222 39.9435 32.1412 40.8163 32.0725 41.6846C32.0725 45.113 32.0404 47.8684 32.0404 48.7335C32.0404 49.4064 32.521 50.2074 33.8026 49.951C39.5665 48.0103 44.4531 44.0844 47.5901 38.8741C50.7271 33.6638 51.9103 27.5082 50.9286 21.5061C49.9469 15.5041 46.8641 10.0463 42.2305 6.10692C37.5969 2.1676 31.7142 0.00316535 25.6324 0V0Z" fill="#AF3B2C"/>
</svg>
