<svg width="50" height="50" viewBox="0 0 50 50" fill="none" xmlns="http://www.w3.org/2000/svg">
<path d="M25 18.8C23.7738 18.8 22.575 19.1636 21.5555 19.8449C20.5359 20.5262 19.7412 21.4945 19.2719 22.6274C18.8027 23.7603 18.6799 25.0069 18.9191 26.2096C19.1584 27.4122 19.7489 28.517 20.6159 29.3841C21.483 30.2511 22.5878 30.8416 23.7904 31.0809C24.9931 31.3201 26.2397 31.1973 27.3726 30.7281C28.5055 30.2588 29.4738 29.4641 30.1551 28.4445C30.8364 27.425 31.2 26.2262 31.2 25C31.2 24.1858 31.0396 23.3796 30.7281 22.6274C30.4165 21.8751 29.9598 21.1917 29.3841 20.6159C28.8083 20.0402 28.1249 19.5835 27.3726 19.2719C26.6204 18.9604 25.8142 18.8 25 18.8V18.8ZM49.825 12.675C49.8118 10.7444 49.4563 8.83143 48.775 7.025C48.2732 5.70315 47.4968 4.50273 46.497 3.50296C45.4973 2.50319 44.2969 1.72679 42.975 1.225C41.1686 0.543659 39.2556 0.188152 37.325 0.175C34.1 -1.67638e-07 33.15 0 25 0C16.85 0 15.9 -1.67638e-07 12.675 0.175C10.7444 0.188152 8.83143 0.543659 7.025 1.225C5.70315 1.72679 4.50273 2.50319 3.50296 3.50296C2.50319 4.50273 1.72679 5.70315 1.225 7.025C0.543659 8.83143 0.188152 10.7444 0.175 12.675C-1.67638e-07 15.9 0 16.85 0 25C0 33.15 -1.67638e-07 34.1 0.175 37.325C0.20191 39.2624 0.556936 41.1812 1.225 43C1.72457 44.3158 2.50032 45.5093 3.5 46.5C4.49548 47.5058 5.69847 48.2822 7.025 48.775C8.83143 49.4563 10.7444 49.8118 12.675 49.825C15.9 50 16.85 50 25 50C33.15 50 34.1 50 37.325 49.825C39.2556 49.8118 41.1686 49.4563 42.975 48.775C44.3015 48.2822 45.5045 47.5058 46.5 46.5C47.4997 45.5093 48.2754 44.3158 48.775 43C49.4557 41.1847 49.8111 39.2637 49.825 37.325C50 34.1 50 33.15 50 25C50 16.85 50 15.9 49.825 12.675V12.675ZM43.475 32.675C43.3948 34.2178 43.0655 35.7374 42.5 37.175C42.0147 38.3742 41.2932 39.4636 40.3784 40.3784C39.4636 41.2932 38.3742 42.0147 37.175 42.5C35.7238 43.034 34.1957 43.3295 32.65 43.375C30.675 43.375 30.15 43.375 25 43.375C19.85 43.375 19.325 43.375 17.35 43.375C15.8043 43.3295 14.2762 43.034 12.825 42.5C11.5853 42.0393 10.4657 41.3043 9.55 40.35C8.64417 39.4531 7.94461 38.3697 7.5 37.175C6.96389 35.7253 6.67652 34.1954 6.65 32.65C6.65 30.675 6.65 30.15 6.65 25C6.65 19.85 6.65 19.325 6.65 17.35C6.67652 15.8046 6.96389 14.2747 7.5 12.825C7.9607 11.5853 8.69569 10.4657 9.65 9.55C10.5508 8.64906 11.6332 7.95023 12.825 7.5C14.2762 6.96601 15.8043 6.67052 17.35 6.625V6.625C19.325 6.625 19.85 6.625 25 6.625C30.15 6.625 30.675 6.625 32.65 6.625C34.1957 6.67052 35.7238 6.96601 37.175 7.5C38.4147 7.9607 39.5343 8.69569 40.45 9.65C41.3558 10.5469 42.0554 11.6303 42.5 12.825C43.034 14.2762 43.3295 15.8043 43.375 17.35C43.375 19.325 43.375 19.85 43.375 25C43.375 30.15 43.55 30.675 43.475 32.65V32.675ZM39.475 14.075C39.1773 13.2675 38.708 12.5341 38.0995 11.9255C37.4909 11.317 36.7575 10.8477 35.95 10.55C34.8412 10.1657 33.6734 9.97948 32.5 10C30.55 10 30 10 25 10C20 10 19.45 10 17.5 10C16.3207 10.0115 15.1527 10.2316 14.05 10.65C13.2548 10.9341 12.5292 11.3843 11.9215 11.9705C11.3137 12.5567 10.8377 13.2656 10.525 14.05C10.1619 15.1634 9.98457 16.329 10 17.5C10 19.45 10 20 10 25C10 30 10 30.55 10 32.5C10.0248 33.678 10.2444 34.8438 10.65 35.95C10.9477 36.7575 11.417 37.4909 12.0255 38.0995C12.6341 38.708 13.3675 39.1773 14.175 39.475C15.2417 39.8673 16.3641 40.0867 17.5 40.125V40.125C19.45 40.125 20 40.125 25 40.125C30 40.125 30.55 40.125 32.5 40.125C33.6793 40.1135 34.8473 39.8934 35.95 39.475C36.7575 39.1773 37.4909 38.708 38.0995 38.0995C38.708 37.4909 39.1773 36.7575 39.475 35.95C39.8934 34.8473 40.1135 33.6793 40.125 32.5C40.125 30.55 40.125 30 40.125 25C40.125 20 40.125 19.45 40.125 17.5C40.1257 16.3195 39.9053 15.1493 39.475 14.05V14.075ZM25 34.55C23.7471 34.55 22.5064 34.3028 21.3492 33.8226C20.1919 33.3423 19.1408 32.6385 18.256 31.7514C17.3711 30.8642 16.6701 29.8113 16.1929 28.6527C15.7157 27.4942 15.4717 26.2529 15.475 25V25C15.475 23.1101 16.0357 21.2627 17.0862 19.6917C18.1367 18.1207 19.6297 16.8967 21.3762 16.1746C23.1227 15.4525 25.0441 15.2649 26.8973 15.6354C28.7505 16.0059 30.4521 16.9179 31.7867 18.256C33.1213 19.5941 34.0289 21.2981 34.3945 23.1523C34.7602 25.0064 34.5675 26.9274 33.8409 28.672C33.1142 30.4166 31.8863 31.9063 30.3125 32.9527C28.7387 33.9991 26.8899 34.5549 25 34.55V34.55ZM35 17.325C34.4474 17.2665 33.9359 17.0056 33.5642 16.5924C33.1925 16.1793 32.9868 15.6432 32.9868 15.0875C32.9868 14.5318 33.1925 13.9957 33.5642 13.5826C33.9359 13.1694 34.4474 12.9085 35 12.85V12.85C35.5526 12.9085 36.0641 13.1694 36.4358 13.5826C36.8075 13.9957 37.0132 14.5318 37.0132 15.0875C37.0132 15.6432 36.8075 16.1793 36.4358 16.5924C36.0641 17.0056 35.5526 17.2665 35 17.325Z" fill="#AF3B2C"/>
</svg>
