<svg width="62" height="50" viewBox="0 0 62 50" fill="none" xmlns="http://www.w3.org/2000/svg">
<path d="M61.4204 5.99034C59.1121 6.99178 56.6709 7.6538 54.1728 7.95579C56.8083 6.38134 58.7833 3.90444 59.7314 0.98457C57.2548 2.45885 54.5437 3.49758 51.716 4.05559C49.8259 2.00591 47.309 0.641526 44.5599 0.176435C41.8109 -0.288655 38.9852 0.17185 36.5261 1.48573C34.067 2.79961 32.1135 4.89254 30.972 7.43628C29.8305 9.98003 29.5656 12.8307 30.2189 15.5412C25.2113 15.2879 20.3131 13.9841 15.8423 11.7143C11.3716 9.44453 7.42833 6.25964 4.26872 2.36653C3.1605 4.30179 2.57818 6.49344 2.57966 8.72355C2.57573 10.7946 3.08397 12.8345 4.05914 14.6616C5.03431 16.4887 6.44613 18.0463 8.16892 19.1957C6.16654 19.1412 4.20695 18.6039 2.45682 17.6295V17.7831C2.47183 20.6848 3.48866 23.4924 5.33533 25.7308C7.182 27.9691 9.74514 29.501 12.5912 30.0672C11.4956 30.4006 10.3582 30.5763 9.21307 30.5892C8.42041 30.58 7.62972 30.5081 6.84838 30.3743C7.65885 32.8704 9.22726 35.0519 11.3354 36.6151C13.4435 38.1783 15.9864 39.0454 18.6104 39.096C14.1795 42.5824 8.70906 44.4852 3.07102 44.501C2.04449 44.5043 1.01877 44.4428 0 44.3167C5.75641 48.0334 12.4647 50.0064 19.3167 49.9981C24.0452 50.0472 28.736 49.1536 33.1152 47.3695C37.4944 45.5855 41.4742 42.9467 44.8222 39.6073C48.1702 36.2679 50.8192 32.2948 52.6145 27.9202C54.4098 23.5456 55.3154 18.8571 55.2784 14.1285C55.2784 13.6065 55.2784 13.0537 55.2784 12.5009C57.6882 10.7038 59.7666 8.50067 61.4204 5.99034V5.99034Z" fill="#AF3B2C"/>
</svg>
