<svg xmlns="http://www.w3.org/2000/svg" xmlns:xlink="http://www.w3.org/1999/xlink" width="2560" height="1280pt" viewBox="0 0 1920 1280"><clipPath id="a"><path d="m0 0h1920v1280h-1920z"/></clipPath><linearGradient id="b"><stop offset="0" stop-color="#e64a19"/><stop offset="1" stop-color="#c62828"/></linearGradient><linearGradient id="c" x1=".204" x2="1.053" y1=".415" y2="1.009" gradientTransform="matrix(1057.351 0 0 736 -202.351 544)" gradientUnits="userSpaceOnUse" xlink:href="#b"/><linearGradient id="d" x1=".204" x2="1.053" y1=".415" y2="1.009" gradientTransform="matrix(879.055 0 0 617 -379.055 663)" gradientUnits="userSpaceOnUse" xlink:href="#b"/><linearGradient id="e" x1=".508" x2=".629" y1=".147" y2="1.013" gradientTransform="matrix(718 0 0 681 156 599)" gradientUnits="userSpaceOnUse" xlink:href="#b"/><linearGradient id="f" x1=".204" x2="1.053" y1=".415" y2="1.009" gradientTransform="matrix(1057.351 0 0 736 1224.649 544)" gradientUnits="userSpaceOnUse" xlink:href="#b"/><linearGradient id="g" x1=".204" x2="1.053" y1=".415" y2="1.009" gradientTransform="matrix(1454.423 0 0 961 213 319)" gradientUnits="userSpaceOnUse" xlink:href="#b"/><linearGradient id="h" x1=".204" x2="1.053" y1=".415" y2="1.009" gradientTransform="matrix(1234.055 0 0 859 678.296 421)" gradientUnits="userSpaceOnUse" xlink:href="#b"/><linearGradient id="i" x1=".204" x2="1.053" y1=".415" y2="1.009" gradientTransform="matrix(1057.351 0 0 736 368 832.5)" gradientUnits="userSpaceOnUse" xlink:href="#b"/><linearGradient id="j" x1=".204" x2="1.053" y1=".415" y2="1.009" gradientTransform="matrix(1057.351 0 0 736 855 897.5)" gradientUnits="userSpaceOnUse" xlink:href="#b"/><g fill-rule="evenodd" clip-path="url(#a)"><path fill="url(#c)" d="m326.325 544 528.675 736h-1057.351z"/><path fill="#222" d="m326.325 573 528.675 736h-1057.351z"/><path fill="url(#d)" d="m60.473 663 439.527 617h-879.055z"/><path fill="#222" d="m61.473 690 439.527 617h-879.055z"/><path fill="url(#e)" d="m515 599 359 681h-718z"/><path fill="#222" d="m515 630 359 681h-718z"/><path fill="url(#f)" d="m1753.325 544 528.675 736h-1057.351z"/><path fill="#222" d="m1753.325 572 528.675 736h-1057.351z"/><path fill="url(#g)" d="m940.212 319 727.211 961h-1454.423z"/><path fill="#222" d="m940.212 352 727.211 961h-1454.423z"/><path fill="url(#h)" d="m1295.323 421 617.028 859h-1234.055z"/><path fill="#222" d="m1295.323 451 617.028 859h-1234.055z"/><path fill="url(#i)" d="m896.675 832.5 528.676 736h-1057.351z"/><path fill="#222" d="m896.675 861.5 528.676 736h-1057.351z"/><path fill="url(#j)" d="m1383.675 897.5 528.676 736h-1057.351z"/><path fill="#222" d="m1383.675 926.5 528.676 736h-1057.351z"/></g></svg>